# xmcd
#
# Track frame offsets:
#	150
#	11571
#	23348
#	33995
#	48543
#	61329
#	73379
#	86488
#	99828
#	110376
#	122250
#	131905
#	141923
#	156196
#	168834
#	183318
#	194508
#	207191
#	217959
#	226991
#	238735
#	249117
#	259669
#	269799
#
# Disc length: 3723 seconds
#
# Revision: 0
# Processed by: cddbd v1.4PL0 Copyright (c) Steve Scherf et al.
# Submitted via: MusicWizard 6.0.0
#
DISCID=4c0e8918
DTITLE=Johnny Horton - The World of Johnny Horton
DYEAR=1900
DGENRE=50er Ctry
TTITLE0=The Battle of New Orleans
TTITLE1=When it's Springtime in Alaska
TTITLE2=Johnny Reb
TTITLE3=Sink the Bismark
TTITLE4=North to Alaska
TTITLE5=Rock Island Line
TTITLE6=All for the love of a girl
TTITLE7=Whispering Pines
TTITLE8=The first train heading south
TTITLE9=Lost Highway
TTITLE10=The Golden Rocket
TTITLE11=Got the Bull - the Horns
TTITLE12=The Mansion you stole
TTITLE13=All for the love of a girl
TTITLE14=Comanche
TTITLE15=Jim Bridger
TTITLE16=Johnny Freedom
TTITLE17=John Paul Jones
TTITLE18=Young Abe Lincoln
TTITLE19=The Battle of Bull Run
TTITLE20=The Sinking of Reuben James
TTITLE21=I'm ready if you're willing
TTITLE22=Honky-tonk man
TTITLE23=I'm coming home
EXTD=
EXTT0=
EXTT1=
EXTT2=
EXTT3=
EXTT4=
EXTT5=
EXTT6=
EXTT7=
EXTT8=
EXTT9=
EXTT10=
EXTT11=
EXTT12=
EXTT13=
EXTT14=
EXTT15=
EXTT16=
EXTT17=
EXTT18=
EXTT19=
EXTT20=
EXTT21=
EXTT22=
EXTT23=
PLAYORDER=
